<svg width="15" height="15" viewBox="0 0 15 15" fill="none" xmlns="http://www.w3.org/2000/svg">
<path d="M0.875977 7.94902L7.88594 14.0331C7.93975 14.0795 8.0084 14.1055 8.08076 14.1055H9.72285C9.86016 14.1055 9.92324 13.9348 9.81934 13.8457L3.32148 8.20508L14.1797 8.20508C14.2613 8.20508 14.3281 8.13828 14.3281 8.05664V6.94336C14.3281 6.86172 14.2613 6.79492 14.1797 6.79492L3.32334 6.79492L9.82119 1.1543C9.9251 1.06338 9.86201 0.894531 9.72471 0.894531H8.02695C7.9917 0.894531 7.95645 0.90752 7.93047 0.931641L0.875977 7.05098C0.811743 7.10683 0.76024 7.17582 0.724947 7.25328C0.689653 7.33074 0.67139 7.41488 0.67139 7.5C0.67139 7.58512 0.689653 7.66926 0.724947 7.74672C0.76024 7.82418 0.811743 7.89317 0.875977 7.94902V7.94902Z" fill="white"/>
</svg>
