<svg width="20" height="20" viewBox="0 0 20 20" fill="none" xmlns="http://www.w3.org/2000/svg">
<path d="M14.42 17.5125C15.4081 16.5271 16.1918 15.3561 16.7259 14.0669C17.2601 12.7776 17.5342 11.3955 17.5325 9.99999C17.5342 8.60447 17.2601 7.22237 16.7259 5.93312C16.1918 4.64388 15.4081 3.4729 14.42 2.48749L13.535 3.37124C14.4069 4.24073 15.0983 5.27395 15.5696 6.41154C16.0409 7.54913 16.2828 8.76864 16.2812 9.99999C16.2812 12.5887 15.2312 14.9325 13.535 16.6287L14.42 17.5125Z" fill="#5F6973"/>
<path d="M12.6513 15.745C13.4069 14.9914 14.0061 14.0959 14.4145 13.11C14.823 12.1241 15.0326 11.0671 15.0313 9.99997C15.0326 8.93281 14.823 7.8759 14.4145 6.88998C14.0061 5.90407 13.4069 5.00858 12.6513 4.25497L11.7675 5.13872C12.4069 5.77641 12.9139 6.53415 13.2595 7.3684C13.6051 8.20265 13.7824 9.09697 13.7813 9.99997C13.7827 10.9031 13.6057 11.7976 13.2603 12.6321C12.9149 13.4666 12.408 14.2245 11.7688 14.8625L12.6513 15.745Z" fill="#5F6973"/>
<path d="M12.5312 10C12.5322 10.7388 12.3872 11.4706 12.1044 12.1532C11.8217 12.8357 11.4069 13.4557 10.8837 13.9775L10 13.0937C10.4069 12.6879 10.7295 12.2057 10.9494 11.6747C11.1693 11.1438 11.282 10.5747 11.2812 10C11.2812 8.7925 10.7913 7.69875 10 6.90625L10.8837 6.0225C11.4069 6.54425 11.8217 7.16425 12.1044 7.84684C12.3872 8.52943 12.5322 9.26117 12.5312 10ZM8.75 5C8.74983 4.88239 8.71649 4.76722 8.65379 4.66771C8.5911 4.56821 8.50161 4.48842 8.39559 4.4375C8.28958 4.38658 8.17135 4.36661 8.0545 4.37987C7.93764 4.39314 7.8269 4.43911 7.735 4.5125L4.78125 6.875H1.875C1.70924 6.875 1.55027 6.94084 1.43306 7.05805C1.31585 7.17526 1.25 7.33424 1.25 7.5V12.5C1.25 12.6658 1.31585 12.8247 1.43306 12.9419C1.55027 13.0591 1.70924 13.125 1.875 13.125H4.78125L7.735 15.4875C7.8269 15.5609 7.93764 15.6069 8.0545 15.6201C8.17135 15.6334 8.28958 15.6134 8.39559 15.5625C8.50161 15.5116 8.5911 15.4318 8.65379 15.3323C8.71649 15.2328 8.74983 15.1176 8.75 15V5ZM5.39 7.9875L7.5 6.3V13.7L5.39 12.0125C5.27937 11.9237 5.14184 11.8752 5 11.875H2.5V8.125H5C5.14184 8.12474 5.27937 8.07625 5.39 7.9875Z" fill="#5F6973"/>
</svg>
