<svg width="58" height="58" viewBox="0 0 58 58" fill="none" xmlns="http://www.w3.org/2000/svg">
<rect width="58" height="58" rx="10" fill="#1089FE"/>
<path fill-rule="evenodd" clip-rule="evenodd" d="M17 24.5C17 23.7044 17.3161 22.9413 17.8787 22.3787C18.4413 21.8161 19.2044 21.5 20 21.5H31.25C31.9776 21.4999 32.6805 21.7643 33.2277 22.2439C33.7749 22.7235 34.1292 23.3856 34.2245 24.107L38.8895 22.034C39.1178 21.9323 39.368 21.8892 39.6172 21.9087C39.8664 21.9283 40.1068 22.0098 40.3165 22.1458C40.5262 22.2819 40.6986 22.4682 40.8179 22.6879C40.9373 22.9075 40.9999 23.1535 41 23.4035V34.5965C40.9998 34.8463 40.9372 35.0921 40.8179 35.3115C40.6986 35.531 40.5264 35.7172 40.3169 35.8532C40.1074 35.9893 39.8673 36.0708 39.6183 36.0905C39.3693 36.1102 39.1193 36.0674 38.891 35.966L34.2245 33.893C34.1292 34.6144 33.7749 35.2765 33.2277 35.7561C32.6805 36.2357 31.9776 36.5001 31.25 36.5H20C19.2044 36.5 18.4413 36.1839 17.8787 35.6213C17.3161 35.0587 17 34.2956 17 33.5V24.5ZM34.25 32.2625L39.5 34.5965V23.4035L34.25 25.7375V32.2625ZM20 23C19.6022 23 19.2206 23.158 18.9393 23.4393C18.658 23.7206 18.5 24.1022 18.5 24.5V33.5C18.5 33.8978 18.658 34.2794 18.9393 34.5607C19.2206 34.842 19.6022 35 20 35H31.25C31.6478 35 32.0294 34.842 32.3107 34.5607C32.592 34.2794 32.75 33.8978 32.75 33.5V24.5C32.75 24.1022 32.592 23.7206 32.3107 23.4393C32.0294 23.158 31.6478 23 31.25 23H20Z" fill="white"/>
</svg>
