<svg width="40" height="40" viewBox="0 0 40 40" fill="none" xmlns="http://www.w3.org/2000/svg">
<rect width="40" height="40" rx="7" fill="#1089FE"/>
<path d="M27.8153 12.1941C27.7252 12.1046 27.6114 12.0426 27.4872 12.0154C27.3631 11.9883 27.2337 11.9971 27.1144 12.0408L12.4307 17.3739C12.3041 17.4219 12.1951 17.5072 12.1181 17.6185C12.0412 17.7298 12 17.8619 12 17.9972C12 18.1325 12.0412 18.2645 12.1181 18.3759C12.1951 18.4872 12.3041 18.5725 12.4307 18.6205L18.1641 20.907L22.3956 16.6672L23.3367 17.6072L19.0851 21.8537L21.3811 27.58C21.4306 27.7041 21.5162 27.8104 21.6269 27.8853C21.7375 27.9602 21.8682 28.0001 22.0018 28C22.1367 27.9972 22.2676 27.9537 22.3772 27.8752C22.4868 27.7966 22.57 27.6868 22.6159 27.56L27.9554 12.8941C28.0009 12.7762 28.0119 12.6477 27.987 12.5238C27.9622 12.3999 27.9026 12.2855 27.8153 12.1941Z" fill="white"/>
</svg>
