<svg width="166" height="55" viewBox="0 0 166 55" fill="none" xmlns="http://www.w3.org/2000/svg">
<path d="M5.38791 49.4165L4.68146 50.1166C3.64108 49.0667 3.05757 47.6443 3.05566 46.1627L3.05566 46.1614L3.05566 9.5171V9.51581C3.05757 8.0339 3.64071 6.61104 4.68064 5.56027C5.72095 4.50912 7.13358 3.9164 8.609 3.91602L8.60926 3.91602H157.432C158.162 3.91602 158.885 4.06154 159.559 4.34398C160.233 4.62641 160.845 5.04007 161.359 5.56075C161.874 6.08141 162.282 6.6989 162.559 7.37765C162.837 8.05628 162.98 8.78322 162.98 9.51707C162.98 9.51716 162.98 9.51726 162.98 9.51735L162.981 46.1614C162.981 46.8951 162.838 47.6218 162.56 48.3002C162.282 48.9786 161.874 49.5956 161.359 50.1158C160.845 50.6359 160.233 51.049 159.559 51.3307C158.885 51.6125 158.162 51.7573 157.432 51.7565M5.38791 49.4165L157.432 51.7565M5.38791 49.4165L4.68146 50.1166C5.72222 51.1668 7.13521 51.758 8.61032 51.7565M5.38791 49.4165L8.61032 51.7565M157.432 51.7565H8.61032M157.432 51.7565H8.61032" fill="white" stroke="white" stroke-width="2"/>
<path d="M161.981 46.1614C161.981 46.7653 161.863 47.3632 161.635 47.921C161.406 48.4788 161.071 48.9856 160.649 49.4123C160.226 49.8391 159.725 50.1774 159.173 50.4081C158.622 50.6387 158.03 50.7571 157.433 50.7565H8.60926C7.40304 50.7578 6.2457 50.2744 5.39177 49.4127C4.53783 48.551 4.05724 47.3815 4.05566 46.1614V9.5171C4.05724 8.29647 4.53764 7.12637 5.3914 6.2637C6.24517 5.40104 7.40249 4.91633 8.60926 4.91602H157.432C158.029 4.91602 158.621 5.03503 159.173 5.26628C159.725 5.49752 160.226 5.83645 160.648 6.26371C161.071 6.69098 161.405 7.19821 161.634 7.75643C161.862 8.31465 161.98 8.91293 161.98 9.5171L161.981 46.1614Z" fill="black"/>
<path d="M38.7362 27.5843C38.7018 23.7175 41.8664 21.8362 42.0111 21.7487C40.2188 19.1056 37.4409 18.7445 36.4647 18.7157C34.1316 18.4673 31.8684 20.1278 30.6799 20.1278C29.4677 20.1278 27.6374 18.7397 25.6649 18.7804C23.1265 18.82 20.7519 20.3065 19.4495 22.6149C16.7617 27.3215 18.7663 34.2382 21.3414 38.0426C22.6295 39.907 24.1348 41.9862 26.1049 41.913C28.0324 41.8339 28.7524 40.6713 31.0784 40.6713C33.3831 40.6713 34.0592 41.9131 36.0685 41.8663C38.1372 41.8339 39.4395 39.9946 40.6826 38.1146C42.1712 35.9802 42.769 33.8758 42.7928 33.7679C42.7453 33.7511 38.7765 32.2178 38.7362 27.5843ZM34.9405 16.213C35.9772 14.9016 36.6865 13.1176 36.4896 11.3071C34.9891 11.3743 33.1127 12.3569 32.0321 13.6395C31.0761 14.7696 30.222 16.6221 30.4427 18.3641C32.1282 18.4913 33.8587 17.5039 34.9405 16.213Z" fill="white"/>
<path d="M157.433 3.84814H77.7185L108.941 51.8254H157.433C158.919 51.8241 160.345 51.2268 161.396 50.1643C162.448 49.1019 163.04 47.661 163.042 46.1577V9.51822C163.04 8.01458 162.448 6.5733 161.396 5.5104C160.345 4.44751 158.92 3.84973 157.433 3.84814V3.84814Z" fill="url(#paint0_linear_52_1436)"/>
<path d="M66.6542 41.6455H63.9605L62.4849 36.9556H57.356L55.9504 41.6455H53.3279L58.4105 25.679H61.549L66.6542 41.6455ZM62.0401 34.988L60.7057 30.8188C60.5645 30.3929 60.2988 29.3899 59.9098 27.811H59.8623C59.7058 28.4901 59.4555 29.4931 59.1127 30.8188L57.8008 34.988H62.0401ZM79.6994 35.7474C79.6994 37.7054 79.1739 39.2531 78.1218 40.3893C77.18 41.4007 76.0093 41.9058 74.6132 41.9058C73.1056 41.9058 72.0215 41.3623 71.3632 40.2729V46.3137H68.8343V33.9166C68.8343 32.6868 68.8023 31.4259 68.7406 30.1325H70.9646L71.1058 31.9574H71.1532C71.9966 30.5825 73.2764 29.895 74.9939 29.895C76.3366 29.895 77.4576 30.4313 78.3543 31.5051C79.2498 32.5813 79.6994 33.9946 79.6994 35.7474ZM77.1231 35.841C77.1231 34.7204 76.874 33.7966 76.3734 33.0684C75.8266 32.3113 75.0924 31.9322 74.1719 31.9322C73.548 31.9322 72.9811 32.1433 72.4746 32.5597C71.9669 32.9796 71.6348 33.5279 71.4794 34.2069C71.41 34.4609 71.3706 34.7223 71.362 34.9856V36.9064C71.362 37.7426 71.6158 38.4493 72.1235 39.0276C72.6311 39.6035 73.2906 39.8926 74.102 39.8926C75.0544 39.8926 75.7958 39.5195 76.326 38.7792C76.8574 38.0366 77.1231 37.0576 77.1231 35.841ZM92.7908 35.7474C92.7908 37.7054 92.2653 39.2531 91.2132 40.3893C90.2703 41.4007 89.1007 41.9058 87.7034 41.9058C86.1959 41.9058 85.1117 41.3623 84.4534 40.2729V46.3137H81.9246V33.9166C81.9246 32.6868 81.8925 31.4259 81.8309 30.1325H84.0549L84.196 31.9574H84.2435C85.0856 30.5825 86.3655 29.895 88.0842 29.895C89.4257 29.895 90.5466 30.4313 91.4457 31.5051C92.3401 32.5813 92.7908 33.9946 92.7908 35.7474ZM90.2133 35.841C90.2133 34.7204 89.963 33.7966 89.4625 33.0684C88.9157 32.3113 88.1838 31.9322 87.2634 31.9322C86.6395 31.9322 86.0725 32.1433 85.5636 32.5597C85.056 32.9796 84.725 33.5279 84.5697 34.2069C84.4926 34.5237 84.451 34.7816 84.451 34.9856V36.9064C84.451 37.7426 84.7061 38.4493 85.2114 39.0276C85.719 39.6023 86.3785 39.8926 87.1922 39.8926C88.1459 39.8926 88.8872 39.5195 89.4162 38.7792C89.9476 38.0366 90.2133 37.0576 90.2133 35.841ZM107.428 37.1667C107.428 38.5261 106.958 39.6311 106.025 40.4841C104.997 41.4151 103.563 41.8818 101.725 41.8818C100.026 41.8818 98.6646 41.5507 97.6374 40.8872L98.2221 38.7552C99.3312 39.4199 100.549 39.751 101.875 39.751C102.829 39.751 103.57 39.5327 104.099 39.0996C104.63 38.6653 104.898 38.0846 104.898 37.3599C104.898 36.7108 104.676 36.1673 104.241 35.7246C103.803 35.2831 103.079 34.8716 102.063 34.4937C99.2992 33.4511 97.9161 31.9262 97.9161 29.9202C97.9161 28.6101 98.4048 27.5375 99.3798 26.6988C100.355 25.8614 101.648 25.4427 103.256 25.4427C104.693 25.4427 105.889 25.6958 106.839 26.2009L106.205 28.2861C105.311 27.7966 104.301 27.5519 103.172 27.5519C102.28 27.5519 101.58 27.7738 101.08 28.2153C100.658 28.61 100.445 29.0912 100.445 29.6622C100.445 30.2921 100.688 30.8152 101.172 31.2255C101.592 31.6035 102.358 32.015 103.466 32.4565C104.825 33.0108 105.824 33.6562 106.463 34.3977C107.108 35.1392 107.428 36.0642 107.428 37.1667ZM115.81 32.0522H113.023V37.6419C113.023 39.0636 113.514 39.7726 114.498 39.7726C114.95 39.7726 115.325 39.7342 115.622 39.6539L115.692 41.5963C115.193 41.7846 114.538 41.8794 113.725 41.8794C112.726 41.8794 111.946 41.5711 111.382 40.9544C110.821 40.3377 110.539 39.3047 110.539 37.8506V32.0474H108.878V30.1277H110.539V28.0198L113.023 27.2615V30.1277H115.81V32.0522ZM128.362 35.7942C128.362 37.5639 127.861 39.0168 126.863 40.153C125.818 41.3227 124.428 41.9058 122.695 41.9058C121.022 41.9058 119.692 41.3455 118.701 40.2261C117.709 39.1044 117.213 37.691 117.213 35.9862C117.213 34.2021 117.726 32.7408 118.747 31.6047C119.771 30.4673 121.149 29.8986 122.882 29.8986C124.552 29.8986 125.894 30.4601 126.909 31.5807C127.879 32.6676 128.362 34.0714 128.362 35.7942ZM125.741 35.853C125.741 34.7984 125.515 33.8938 125.063 33.1368C124.533 32.2225 123.774 31.7654 122.791 31.7654C121.778 31.7654 121.001 32.2225 120.472 33.1368C120.019 33.8938 119.793 34.814 119.793 35.901C119.793 36.9568 120.019 37.8638 120.472 38.6185C121.019 39.5327 121.781 39.9898 122.769 39.9898C123.736 39.9898 124.494 39.5231 125.042 38.5957C125.507 37.8206 125.741 36.91 125.741 35.853ZM136.586 32.3821C136.323 32.3341 136.056 32.3104 135.788 32.3113C134.899 32.3113 134.211 32.6496 133.727 33.3311C133.307 33.931 133.096 34.6892 133.096 35.6047V41.6455H130.567V33.7582C130.569 32.5497 130.545 31.3412 130.493 30.1337H132.696L132.789 32.3365H132.859C133.127 31.5795 133.547 30.9688 134.123 30.5117C134.651 30.1122 135.292 29.8959 135.951 29.895C136.185 29.895 136.396 29.9118 136.583 29.9418L136.586 32.3821ZM147.895 35.3443C147.902 35.7332 147.871 36.1217 147.803 36.5045H140.216C140.245 37.6419 140.612 38.5129 141.317 39.1128C141.956 39.6479 142.783 39.9166 143.798 39.9166C144.922 39.9166 145.947 39.7366 146.868 39.3731L147.264 41.1476C146.187 41.6227 144.916 41.859 143.449 41.859C141.684 41.859 140.298 41.3335 139.29 40.2849C138.284 39.2351 137.78 37.8242 137.78 36.057C137.78 34.3221 138.248 32.8764 139.187 31.7234C140.169 30.4925 141.496 29.877 143.166 29.877C144.807 29.877 146.049 30.4925 146.892 31.7234C147.56 32.6988 147.895 33.9082 147.895 35.3443ZM145.484 34.6808C145.502 33.9214 145.336 33.2675 144.993 32.7144C144.555 32.0018 143.881 31.6466 142.979 31.6466C142.152 31.6466 141.478 31.9934 140.966 32.6892C140.545 33.2423 140.295 33.907 140.217 34.6784L145.484 34.6808ZM56.6265 20.0342C55.9232 20.0342 55.3147 19.9994 54.8082 19.9406V12.2213C55.5166 12.1106 56.2324 12.0561 56.9492 12.0581C59.8493 12.0581 61.1849 13.5014 61.1849 15.8542C61.1849 18.568 59.6073 20.0342 56.6265 20.0342ZM57.0512 13.0479C56.6598 13.0479 56.3264 13.0719 56.0501 13.1295V18.9976C56.1995 19.0216 56.4866 19.0324 56.8899 19.0324C58.7901 19.0324 59.8718 17.9382 59.8718 15.889C59.8718 14.0617 58.8933 13.0479 57.0512 13.0479ZM65.3471 20.0929C63.7125 20.0929 62.6533 18.8584 62.6533 17.1823C62.6533 15.4355 63.7351 14.1901 65.4396 14.1901C67.0503 14.1901 68.1333 15.3659 68.1333 17.0899C68.1333 18.8584 67.0171 20.0929 65.3471 20.0929ZM65.3945 15.1091C64.4966 15.1091 63.9213 15.9586 63.9213 17.1463C63.9213 18.3113 64.5084 19.1607 65.3826 19.1607C66.2568 19.1607 66.844 18.2525 66.844 17.1223C66.844 15.9706 66.2687 15.1091 65.3945 15.1091ZM77.454 14.3065L75.7044 19.9646H74.5646L73.8398 17.5075C73.6596 16.9064 73.5096 16.2966 73.3903 15.6802H73.3666C73.2752 16.2969 73.102 16.9148 72.9182 17.5075L72.1472 19.9646H70.9955L69.3491 14.3065H70.6266L71.26 16.9964C71.4094 17.637 71.5352 18.2417 71.6395 18.8128H71.6633C71.7546 18.3365 71.904 17.7414 72.1235 17.0084L72.9182 14.3077H73.9312L74.6915 16.9508C74.8753 17.5914 75.0248 18.2201 75.141 18.814H75.1742C75.2549 18.2321 75.3818 17.6142 75.5538 16.9508L76.2335 14.3077L77.454 14.3065ZM83.8947 19.9646H82.6517V16.7156C82.6517 15.715 82.2721 15.2135 81.5236 15.2135C80.787 15.2135 80.2806 15.8542 80.2806 16.5992V19.9646H79.0375V15.9238C79.0375 15.4235 79.0256 14.8872 78.9912 14.3053H80.0849L80.143 15.1787H80.1774C80.5119 14.574 81.1903 14.1901 81.9507 14.1901C83.1249 14.1901 83.8959 15.0983 83.8959 16.5764L83.8947 19.9646ZM87.3227 19.9646H86.0784V11.7102H87.3227V19.9646ZM91.8549 20.0929C90.2216 20.0929 89.1612 18.8584 89.1612 17.1823C89.1612 15.4355 90.243 14.1901 91.9463 14.1901C93.5582 14.1901 94.64 15.3659 94.64 17.0899C94.6412 18.8584 93.5238 20.0929 91.8549 20.0929ZM91.9012 15.1091C91.0033 15.1091 90.428 15.9586 90.428 17.1463C90.428 18.3113 91.0163 19.1607 91.8882 19.1607C92.7635 19.1607 93.3495 18.2525 93.3495 17.1223C93.3507 15.9706 92.7766 15.1091 91.9012 15.1091ZM99.5411 19.9646L99.451 19.3131H99.4178C99.0382 19.8374 98.4843 20.0929 97.7821 20.0929C96.7798 20.0929 96.0681 19.3827 96.0681 18.4277C96.0681 17.0311 97.2649 16.3089 99.3371 16.3089V16.2045C99.3371 15.4595 98.9469 15.0863 98.1759 15.0863C97.6243 15.0863 97.1404 15.2267 96.7146 15.5063L96.4619 14.6796C96.9791 14.3533 97.6243 14.1901 98.3823 14.1901C99.8436 14.1901 100.581 14.97 100.581 16.5308V18.6148C100.581 19.1859 100.606 19.6286 100.662 19.9658L99.5411 19.9646ZM99.3703 17.1463C97.9897 17.1463 97.297 17.4847 97.297 18.2873C97.297 18.8812 97.654 19.1715 98.1498 19.1715C98.782 19.1715 99.3703 18.6832 99.3703 18.0198V17.1463ZM106.618 19.9646L106.56 19.0563H106.525C106.168 19.7426 105.568 20.0929 104.729 20.0929C103.381 20.0929 102.382 18.8932 102.382 17.2051C102.382 15.4355 103.417 14.1889 104.831 14.1889C105.58 14.1889 106.11 14.4445 106.409 14.958H106.434V11.7102H107.678V18.4397C107.678 18.9868 107.691 19.4991 107.724 19.9646H106.618ZM106.434 16.6352C106.434 15.8434 105.915 15.1679 105.124 15.1679C104.203 15.1679 103.639 15.9946 103.639 17.1583C103.639 18.2993 104.224 19.0803 105.099 19.0803C105.881 19.0803 106.434 18.3929 106.434 17.5782V16.6352ZM115.567 20.0929C113.934 20.0929 112.875 18.8584 112.875 17.1823C112.875 15.4355 113.956 14.1901 115.66 14.1901C117.272 14.1901 118.353 15.3659 118.353 17.0899C118.355 18.8584 117.238 20.0929 115.567 20.0929ZM115.613 15.1091C114.717 15.1091 114.141 15.9586 114.141 17.1463C114.141 18.3113 114.728 19.1607 115.601 19.1607C116.477 19.1607 117.063 18.2525 117.063 17.1223C117.065 15.9706 116.49 15.1091 115.613 15.1091ZM125.038 19.9646H123.794V16.7156C123.794 15.715 123.415 15.2135 122.666 15.2135C121.93 15.2135 121.424 15.8542 121.424 16.5992V19.9646H120.18V15.9238C120.18 15.4235 120.168 14.8872 120.134 14.3053H121.227L121.285 15.1787H121.32C121.653 14.574 122.333 14.1889 123.092 14.1889C124.266 14.1889 125.038 15.0971 125.038 16.5752V19.9646ZM133.402 15.2495H132.034V17.997C132.034 18.6964 132.274 19.0455 132.758 19.0455C132.977 19.0455 133.161 19.0216 133.309 18.9868L133.344 19.9418C133.103 20.0354 132.78 20.0821 132.379 20.0821C131.4 20.0821 130.814 19.5351 130.814 18.1025V15.2495H129.998V14.3065H130.814V13.2699L132.034 12.8968V14.3053H133.402V15.2495ZM139.983 19.9646H138.741V16.7396C138.741 15.727 138.362 15.2147 137.613 15.2147C136.969 15.2147 136.368 15.6574 136.368 16.5536V19.9646H135.127V11.7102H136.368V15.1091H136.393C136.785 14.4925 137.352 14.1889 138.075 14.1889C139.259 14.1889 139.983 15.1199 139.983 16.5992V19.9646ZM146.725 17.4379H142.994C143.018 18.5093 143.719 19.1139 144.757 19.1139C145.308 19.1139 145.816 19.0204 146.264 18.8464L146.458 19.7198C145.929 19.9526 145.306 20.0689 144.581 20.0689C142.832 20.0689 141.796 18.9508 141.796 17.2171C141.796 15.4823 142.857 14.1781 144.441 14.1781C145.871 14.1781 146.767 15.2495 146.767 16.868C146.775 17.059 146.761 17.2503 146.725 17.4379ZM145.585 16.5416C145.585 15.6682 145.149 15.0515 144.355 15.0515C143.641 15.0515 143.076 15.6802 142.995 16.5416H145.585Z" fill="white"/>
<defs>
<linearGradient id="paint0_linear_52_1436" x1="120.379" y1="51.9528" x2="120.379" y2="-121.076" gradientUnits="userSpaceOnUse">
<stop stop-color="#1A1A1A" stop-opacity="0.1"/>
<stop offset="0.123" stop-color="#212121" stop-opacity="0.151"/>
<stop offset="0.308" stop-color="#353535" stop-opacity="0.227"/>
<stop offset="0.532" stop-color="#575757" stop-opacity="0.318"/>
<stop offset="0.783" stop-color="#858585" stop-opacity="0.421"/>
<stop offset="1" stop-color="#B3B3B3" stop-opacity="0.51"/>
</linearGradient>
</defs>
</svg>
