<svg width="18" height="18" viewBox="0 0 18 18" fill="none" xmlns="http://www.w3.org/2000/svg">
<path d="M17.174 0.826007C16.072 -0.275993 15.092 0.0490069 15.092 0.0490069L6.453 8.68101L5 13L9.317 11.546L17.951 2.90801C17.951 2.90801 18.275 1.92801 17.174 0.826007ZM9.605 10.605L9.134 11.075L7.661 11.575C7.54687 11.2971 7.37744 11.0454 7.163 10.835C6.95246 10.6208 6.70074 10.4514 6.423 10.337L6.923 8.86401L7.394 8.39401C7.394 8.39401 8.17 8.30501 8.931 9.06701C9.693 9.82801 9.605 10.605 9.605 10.605ZM15 16H2V3.00001H7L9 1.00001H2C0.9 1.00001 0 1.90001 0 3.00001V16C0 17.1 0.9 18 2 18H15C16.1 18 17 17.1 17 16V9.00001L15 11V16Z" fill="#1089FE"/>
</svg>
