<svg width="165" height="55" viewBox="0 0 165 55" fill="none" xmlns="http://www.w3.org/2000/svg">
<path d="M7.92593 52.819H156.074C159.956 52.819 163 49.7221 163 45.8234V9.85005C163 5.9513 159.956 2.85449 156.074 2.85449H7.92593C4.04414 2.85449 1 5.9513 1 9.85005V45.8234C1 49.7221 4.04414 52.819 7.92593 52.819Z" fill="black" stroke="white" stroke-width="2"/>
<path d="M58.1778 16.0857C58.1778 17.045 57.9407 17.8844 57.3481 18.484C56.637 19.2034 55.8074 19.5632 54.7407 19.5632C53.6741 19.5632 52.8444 19.2034 52.1333 18.484C51.4222 17.7645 51.0667 16.9251 51.0667 15.8459C51.0667 14.7667 51.4222 13.9273 52.1333 13.2079C52.8444 12.4884 53.6741 12.1287 54.7407 12.1287C55.2148 12.1287 55.6889 12.2486 56.1629 12.4884C56.637 12.7282 56.9926 12.968 57.2296 13.3278L56.637 13.9273C56.1629 13.3278 55.5703 13.088 54.7407 13.088C54.0296 13.088 53.3185 13.3278 52.8444 13.9273C52.2518 14.407 52.0148 15.1264 52.0148 15.9658C52.0148 16.8052 52.2518 17.5247 52.8444 18.0043C53.437 18.484 54.0296 18.8437 54.7407 18.8437C55.5703 18.8437 56.1629 18.6039 56.7555 18.0043C57.1111 17.6446 57.3481 17.1649 57.3481 16.5654H54.7407V15.6061H58.1778V16.0857ZM63.6296 13.088H60.4296V15.3663H63.3926V16.2056H60.4296V18.484H63.6296V19.4432H59.4815V12.2486H63.6296V13.088ZM67.5407 19.4432H66.5926V13.088H64.5777V12.2486H69.5555V13.088H67.5407V19.4432ZM72.9926 19.4432V12.2486H73.9407V19.4432H72.9926ZM77.9703 19.4432H77.0222V13.088H75.0074V12.2486H79.8666V13.088H77.8518V19.4432H77.9703ZM89.2296 18.484C88.5185 19.2034 87.6888 19.5632 86.6222 19.5632C85.5555 19.5632 84.7259 19.2034 84.0148 18.484C83.3037 17.7645 82.9481 16.9251 82.9481 15.8459C82.9481 14.7667 83.3037 13.9273 84.0148 13.2079C84.7259 12.4884 85.5555 12.1287 86.6222 12.1287C87.6888 12.1287 88.5185 12.4884 89.2296 13.2079C89.9407 13.9273 90.2962 14.7667 90.2962 15.8459C90.2962 16.9251 89.9407 17.7645 89.2296 18.484ZM84.7259 17.8844C85.2 18.364 85.9111 18.7238 86.6222 18.7238C87.3333 18.7238 88.0444 18.484 88.5185 17.8844C88.9925 17.4048 89.3481 16.6853 89.3481 15.8459C89.3481 15.0065 89.1111 14.2871 88.5185 13.8074C88.0444 13.3278 87.3333 12.968 86.6222 12.968C85.9111 12.968 85.2 13.2079 84.7259 13.8074C84.2518 14.2871 83.8963 15.0065 83.8963 15.8459C83.8963 16.6853 84.1333 17.4048 84.7259 17.8844ZM91.6 19.4432V12.2486H92.6666L96.1037 17.8844V12.2486H97.0518V19.4432H96.1037L92.4296 13.5676V19.4432H91.6Z" fill="white"/>
<path d="M82.7112 29.9949C79.8667 29.9949 77.6149 32.1533 77.6149 35.1511C77.6149 38.029 79.8667 40.3073 82.7112 40.3073C85.5556 40.3073 87.8075 38.1489 87.8075 35.1511C87.8075 32.0334 85.5556 29.9949 82.7112 29.9949ZM82.7112 38.1489C81.1704 38.1489 79.8667 36.8299 79.8667 35.0312C79.8667 33.2325 81.1704 31.9135 82.7112 31.9135C84.2519 31.9135 85.5556 33.1126 85.5556 35.0312C85.5556 36.8299 84.2519 38.1489 82.7112 38.1489ZM71.6889 29.9949C68.8445 29.9949 66.5927 32.1533 66.5927 35.1511C66.5927 38.029 68.8445 40.3073 71.6889 40.3073C74.5334 40.3073 76.7852 38.1489 76.7852 35.1511C76.7852 32.0334 74.5334 29.9949 71.6889 29.9949ZM71.6889 38.1489C70.1482 38.1489 68.8445 36.8299 68.8445 35.0312C68.8445 33.2325 70.1482 31.9135 71.6889 31.9135C73.2297 31.9135 74.5334 33.1126 74.5334 35.0312C74.5334 36.8299 73.2297 38.1489 71.6889 38.1489ZM58.5334 31.5538V33.7122H63.6297C63.5112 34.9113 63.0371 35.8706 62.4445 36.4701C61.7334 37.1896 60.5482 38.029 58.5334 38.029C55.3334 38.029 52.963 35.5109 52.963 32.2733C52.963 29.0357 55.4519 26.5175 58.5334 26.5175C60.1927 26.5175 61.4964 27.237 62.4445 28.0764L63.9852 26.5175C62.6815 25.3184 61.0223 24.3591 58.6519 24.3591C54.3853 24.3591 50.7112 27.9565 50.7112 32.2733C50.7112 36.5901 54.3853 40.1874 58.6519 40.1874C61.0223 40.1874 62.6815 39.4679 64.1038 37.9091C65.526 36.4701 66.0001 34.4317 66.0001 32.8728C66.0001 32.3932 66.0001 31.9135 65.8815 31.5538H58.5334ZM112.341 33.2325C111.867 32.0334 110.682 29.9949 108.074 29.9949C105.467 29.9949 103.333 32.0334 103.333 35.1511C103.333 38.029 105.467 40.3073 108.311 40.3073C110.563 40.3073 111.985 38.8684 112.459 38.029L110.8 36.8299C110.207 37.6693 109.496 38.2688 108.311 38.2688C107.126 38.2688 106.415 37.7892 105.822 36.71L112.578 33.8321L112.341 33.2325ZM105.467 34.9113C105.467 32.9927 107.007 31.9135 108.074 31.9135C108.904 31.9135 109.733 32.3932 109.97 32.9927L105.467 34.9113ZM99.8963 39.8277H102.148V24.8388H99.8963V39.8277ZM96.3408 31.0742C95.7482 30.4746 94.8 29.875 93.6149 29.875C91.126 29.875 88.7556 32.1533 88.7556 35.0312C88.7556 37.9091 91.0075 40.0675 93.6149 40.0675C94.8 40.0675 95.7482 39.4679 96.2223 38.8684H96.3408V39.5878C96.3408 41.5064 95.2741 42.5856 93.6149 42.5856C92.3112 42.5856 91.363 41.6263 91.126 40.7869L89.2297 41.6263C89.8223 42.9453 91.2445 44.6241 93.7334 44.6241C96.3408 44.6241 98.4741 43.0653 98.4741 39.348V30.2348H96.3408V31.0742ZM93.7334 38.1489C92.1926 38.1489 90.8889 36.8299 90.8889 35.0312C90.8889 33.2325 92.1926 31.9135 93.7334 31.9135C95.2741 31.9135 96.4593 33.2325 96.4593 35.0312C96.4593 36.8299 95.2741 38.1489 93.7334 38.1489ZM122.652 24.8388H117.319V39.8277H119.57V34.1918H122.652C125.141 34.1918 127.511 32.3932 127.511 29.5153C127.511 26.6374 125.141 24.8388 122.652 24.8388ZM122.77 32.0334H119.57V26.8773H122.77C124.43 26.8773 125.378 28.3162 125.378 29.3954C125.259 30.7144 124.311 32.0334 122.77 32.0334ZM136.4 29.875C134.741 29.875 133.081 30.5945 132.489 32.1533L134.504 32.9927C134.978 32.1533 135.689 31.9135 136.519 31.9135C137.704 31.9135 138.77 32.633 138.889 33.8321V33.952C138.533 33.7122 137.585 33.3525 136.637 33.3525C134.504 33.3525 132.37 34.5516 132.37 36.71C132.37 38.7485 134.148 40.0675 136.044 40.0675C137.585 40.0675 138.296 39.348 138.889 38.6285H139.007V39.8277H141.141V34.0719C140.904 31.4339 138.889 29.875 136.4 29.875ZM136.163 38.1489C135.452 38.1489 134.385 37.7892 134.385 36.8299C134.385 35.6308 135.689 35.271 136.756 35.271C137.704 35.271 138.178 35.5109 138.77 35.7507C138.533 37.1896 137.348 38.1489 136.163 38.1489ZM148.607 30.2348L146.119 36.71H146L143.393 30.2348H141.022L144.933 39.348L142.681 44.3843H144.933L150.978 30.2348H148.607ZM128.696 39.8277H130.948V24.8388H128.696V39.8277Z" fill="white"/>
<path d="M14.3259 12.8481C13.9703 13.2079 13.8518 13.8074 13.8518 14.5269V41.0272C13.8518 41.7467 14.0888 42.3463 14.4444 42.706L14.5629 42.8259L29.2592 27.9569V27.7171L14.3259 12.8481Z" fill="url(#paint0_linear_52_1444)"/>
<path d="M33.9999 32.9932L29.1406 28.0769V27.7171L33.9999 22.8008L34.1184 22.9207L39.9258 26.2782C41.5851 27.2375 41.5851 28.7963 39.9258 29.7556L33.9999 32.9932Z" fill="url(#paint1_linear_52_1444)"/>
<path d="M34.1185 32.8732L29.1408 27.8369L14.3259 42.8258C14.9185 43.4254 15.7482 43.4254 16.8148 42.9457L34.1185 32.8732Z" fill="url(#paint2_linear_52_1444)"/>
<path d="M34.1185 22.8004L16.8148 12.8478C15.7482 12.2482 14.9185 12.3681 14.3259 12.9677L29.1408 27.8367L34.1185 22.8004Z" fill="url(#paint3_linear_52_1444)"/>
<path opacity="0.2" d="M34 32.7534L16.8148 42.5861C15.8667 43.1857 15.037 43.0658 14.4444 42.5861L14.3259 42.706L14.4444 42.826C15.037 43.3056 15.8667 43.4255 16.8148 42.826L34 32.7534Z" fill="black"/>
<path opacity="0.12" d="M14.3259 42.586C13.9703 42.2263 13.8518 41.6267 13.8518 40.9072V41.0271C13.8518 41.7466 14.0888 42.3462 14.4444 42.7059V42.586H14.3259ZM39.9259 29.3958L34 32.7533L34.1185 32.8732L39.9259 29.5157C40.7555 29.036 41.1111 28.4365 41.1111 27.8369C41.1111 28.4365 40.637 28.9161 39.9259 29.3958Z" fill="black"/>
<path opacity="0.25" d="M16.8148 12.9678L39.9259 26.2779C40.637 26.7576 41.1111 27.2372 41.1111 27.8368C41.1111 27.2372 40.7555 26.6377 39.9259 26.158L16.8148 12.8479C15.1555 11.8886 13.8518 12.608 13.8518 14.5266V14.6465C13.8518 12.8479 15.1555 12.0085 16.8148 12.9678Z" fill="white"/>
<defs>
<linearGradient id="paint0_linear_52_1444" x1="27.837" y1="14.2991" x2="7.71371" y2="34.1875" gradientUnits="userSpaceOnUse">
<stop stop-color="#00A0FF"/>
<stop offset="0.007" stop-color="#00A1FF"/>
<stop offset="0.26" stop-color="#00BEFF"/>
<stop offset="0.512" stop-color="#00D2FF"/>
<stop offset="0.76" stop-color="#00DFFF"/>
<stop offset="1" stop-color="#00E3FF"/>
</linearGradient>
<linearGradient id="paint1_linear_52_1444" x1="42.0995" y1="27.8382" x2="13.4215" y2="27.8382" gradientUnits="userSpaceOnUse">
<stop stop-color="#FFE000"/>
<stop offset="0.409" stop-color="#FFBD00"/>
<stop offset="0.775" stop-color="#FFA500"/>
<stop offset="1" stop-color="#FF9C00"/>
</linearGradient>
<linearGradient id="paint2_linear_52_1444" x1="31.4246" y1="30.5901" x2="4.13706" y2="57.5607" gradientUnits="userSpaceOnUse">
<stop stop-color="#FF3A44"/>
<stop offset="1" stop-color="#C31162"/>
</linearGradient>
<linearGradient id="paint3_linear_52_1444" x1="10.6483" y1="4.06549" x2="22.834" y2="16.1097" gradientUnits="userSpaceOnUse">
<stop stop-color="#32A071"/>
<stop offset="0.069" stop-color="#2DA771"/>
<stop offset="0.476" stop-color="#15CF74"/>
<stop offset="0.801" stop-color="#06E775"/>
<stop offset="1" stop-color="#00F076"/>
</linearGradient>
</defs>
</svg>
