<svg width="64" height="64" viewBox="0 0 64 64" fill="none" xmlns="http://www.w3.org/2000/svg">
<g filter="url(#filter0_d_251_3)">
<rect x="1" y="1" width="58" height="58" rx="10" fill="#FFBD00"/>
</g>
<path d="M38.9733 23.7133C38.9754 23.3615 38.8879 23.0148 38.719 22.7061C38.5502 22.3974 38.3055 22.1368 38.0081 21.9487C37.7107 21.7607 37.3703 21.6514 37.019 21.6312C36.6677 21.611 36.317 21.6806 36 21.8333C35.9791 21.479 35.8697 21.1355 35.682 20.8342C35.4943 20.5329 35.2342 20.2834 34.9253 20.1085C34.6165 19.9335 34.2687 19.8386 33.9138 19.8325C33.5589 19.8263 33.2081 19.9091 32.8933 20.0733C32.8578 19.5638 32.6456 19.0825 32.2932 18.7127C31.9408 18.3429 31.4704 18.1077 30.9632 18.0476C30.4559 17.9876 29.9435 18.1065 29.5146 18.3838C29.0856 18.6611 28.7668 19.0795 28.6133 19.5667C28.279 19.3662 27.8965 19.2602 27.5067 19.26C27.2198 19.2609 26.936 19.3184 26.6714 19.4291C26.4068 19.5399 26.1667 19.7018 25.9648 19.9056C25.7629 20.1093 25.6032 20.3509 25.4948 20.6165C25.3865 20.8821 25.3316 21.1665 25.3333 21.4533V29.8933C24.48 28.8267 23.6467 27.7733 23.52 27.5933C23.3272 27.2872 23.0595 27.0353 22.7422 26.8615C22.4249 26.6877 22.0685 26.5977 21.7067 26.6C21.3998 26.5907 21.0943 26.6444 20.809 26.7578C20.5237 26.8712 20.2646 27.0419 20.0479 27.2593C19.8311 27.4767 19.6612 27.7362 19.5486 28.0219C19.436 28.3075 19.3832 28.6132 19.3933 28.92C19.4533 30.12 21.7733 34.36 23.3333 36.6667C25.6933 40.16 27.9467 40.6667 28.0467 40.6667H35.06C35.1927 40.6652 35.3214 40.6208 35.4267 40.54C36.6238 39.4368 37.4896 38.0215 37.9267 36.4533C38.5933 34.3933 38.9467 31.4333 38.98 27.4133L38.9733 23.7133ZM36.7867 36.08C36.4123 37.3489 35.7404 38.51 34.8267 39.4667H28.22C27.9067 39.3733 26.1733 38.7333 24.3067 35.9667C22.44 33.2 20.6267 29.5133 20.5933 28.86C20.588 28.7205 20.6119 28.5813 20.6636 28.4516C20.7152 28.3218 20.7935 28.2043 20.8933 28.1067C20.9917 28.0055 21.1101 27.9259 21.241 27.8731C21.3718 27.8203 21.5123 27.7954 21.6533 27.8C21.8295 27.7898 22.005 27.8286 22.1603 27.9121C22.3157 27.9957 22.4448 28.1207 22.5333 28.2733C22.7267 28.56 24.1067 30.2733 24.9133 31.2933L26.5333 30.2V21.4533C26.5221 21.3174 26.5392 21.1806 26.5836 21.0516C26.6279 20.9226 26.6985 20.8042 26.7909 20.7039C26.8833 20.6036 26.9955 20.5235 27.1204 20.4687C27.2453 20.4139 27.3803 20.3856 27.5167 20.3856C27.6531 20.3856 27.788 20.4139 27.9129 20.4687C28.0378 20.5235 28.15 20.6036 28.2424 20.7039C28.3348 20.8042 28.4054 20.9226 28.4498 21.0516C28.4941 21.1806 28.5112 21.3174 28.5 21.4533V28.88H29.7V20.2133C29.7284 19.968 29.8459 19.7417 30.0303 19.5774C30.2147 19.4131 30.453 19.3223 30.7 19.3223C30.947 19.3223 31.1853 19.4131 31.3697 19.5774C31.5541 19.7417 31.6716 19.968 31.7 20.2133V28.9667H32.9V22C32.889 21.8686 32.9054 21.7363 32.9481 21.6115C32.9908 21.4867 33.059 21.3721 33.1483 21.275C33.2376 21.1779 33.3461 21.1004 33.4668 21.0474C33.5876 20.9944 33.7181 20.967 33.85 20.967C33.9819 20.967 34.1124 20.9944 34.2332 21.0474C34.3539 21.1004 34.4624 21.1779 34.5517 21.275C34.641 21.3721 34.7092 21.4867 34.7519 21.6115C34.7946 21.7363 34.811 21.8686 34.8 22V29.6267H36V23.6933C36.0192 23.4723 36.1206 23.2665 36.2841 23.1166C36.4477 22.9667 36.6615 22.8835 36.8833 22.8835C37.1052 22.8835 37.319 22.9667 37.4825 23.1166C37.6461 23.2665 37.7474 23.4723 37.7667 23.6933V27.3933C37.7467 31.3333 37.4267 34.14 36.7867 36.08Z" fill="white"/>
<defs>
<filter id="filter0_d_251_3" x="0" y="0" width="64" height="64" filterUnits="userSpaceOnUse" color-interpolation-filters="sRGB">
<feFlood flood-opacity="0" result="BackgroundImageFix"/>
<feColorMatrix in="SourceAlpha" type="matrix" values="0 0 0 0 0 0 0 0 0 0 0 0 0 0 0 0 0 0 127 0" result="hardAlpha"/>
<feOffset dx="2" dy="2"/>
<feGaussianBlur stdDeviation="1.5"/>
<feComposite in2="hardAlpha" operator="out"/>
<feColorMatrix type="matrix" values="0 0 0 0 0.0627451 0 0 0 0 0.537255 0 0 0 0 0.996078 0 0 0 0.1 0"/>
<feBlend mode="normal" in2="BackgroundImageFix" result="effect1_dropShadow_251_3"/>
<feBlend mode="normal" in="SourceGraphic" in2="effect1_dropShadow_251_3" result="shape"/>
</filter>
</defs>
</svg>
