<svg width="111" height="61" viewBox="0 0 111 61" fill="none" xmlns="http://www.w3.org/2000/svg">
<path d="M58.7782 5.1199C63.8916 2.83266 69.7731 2.44859 75.2017 3.71546C83.0723 5.65302 89.9226 11.4371 93.1041 18.9007C94.927 23.9739 95.4945 29.5516 94.3767 34.8541C92.1296 45.1152 82.8832 53.3183 72.5246 54.6425C69.5495 54.6539 66.4884 55.0094 63.5935 54.1438C62.6075 53.8915 61.5642 53.668 60.5496 53.8915C57.3107 55.3074 54.4789 58.2253 50.707 57.973C48.8325 57.824 49.377 55.5769 49.3025 54.2985C49.2796 51.7189 51.0394 49.0935 49.7267 46.6056C48.7809 44.3585 46.2528 42.9139 46.1439 40.3056C47.7318 40.277 49.3197 40.3171 50.9076 40.277C52.2318 41.8305 53.6993 43.2693 54.9432 44.8916C55.4706 47.0298 54.7999 49.2884 54.8229 51.4724C56.8923 50.5552 58.761 48.7839 61.0139 48.5374C65.6228 50.0164 70.696 50.7043 75.3679 49.0648C82.3328 46.8865 87.899 40.7585 89.5672 33.6789C90.3927 28.6172 90.1462 23.1255 87.5322 18.5854C83.6685 12.3084 76.6291 7.4874 69.0221 8.08931C60.2285 7.43008 52.0426 13.7587 49.0159 21.7784C47.342 21.7898 45.6739 21.8128 44 21.7497C46.0981 14.3721 51.6471 8.02052 58.7782 5.1199Z" fill="#0857DA"/>
<path d="M88.8907 8.47339C95.5461 10.5485 101.502 15.295 104.294 21.7669C107.108 27.7975 107.985 34.9057 105.498 41.1999C104.867 43.0916 103.285 45.0349 104.259 47.0986C105.589 50.0164 107.544 52.8998 107.074 56.2648C103.48 57.4342 99.983 55.5138 96.4862 54.889C95.1219 54.3272 93.9009 55.4049 92.7028 55.9094C86.6551 59.1253 79.1112 59.8934 72.7424 57.1533C76.0501 56.5227 79.1972 55.359 82.3156 54.1151C84.9583 53.559 87.6984 53.1864 90.1175 51.8909C91.671 51.1056 93.1041 50.0164 94.8295 49.6151C96.7098 49.9419 98.5499 50.4922 100.453 50.6871C99.9887 48.9846 99.0199 47.4483 98.7104 45.6999C98.418 43.5502 100.298 42.0082 100.889 40.0821C102.757 34.3611 102.345 27.8147 99.2206 22.6039C97.8391 19.6746 95.0072 17.7886 93.6544 14.8479C92.4678 12.446 90.6105 10.4912 88.8907 8.47339Z" fill="#0857DA"/>
<path d="M1.162 36H8.344V34.152H3.43V26.2H1.162V36ZM14.6932 36.168C17.7732 36.168 20.0552 34.026 20.0552 31.1C20.0552 28.174 17.7732 26.032 14.6932 26.032C11.5992 26.032 9.33116 28.188 9.33116 31.1C9.33116 34.012 11.5992 36.168 14.6932 36.168ZM14.6932 34.236C12.9432 34.236 11.6272 32.962 11.6272 31.1C11.6272 29.238 12.9432 27.964 14.6932 27.964C16.4432 27.964 17.7592 29.238 17.7592 31.1C17.7592 32.962 16.4432 34.236 14.6932 34.236ZM28.8817 33.816C28.3077 34.124 27.7337 34.236 27.1177 34.236C25.2417 34.236 23.9397 32.934 23.9397 31.1C23.9397 29.238 25.2417 27.964 27.1457 27.964C28.1397 27.964 28.9657 28.314 29.6797 29.07L31.1357 27.726C30.1837 26.62 28.7557 26.032 27.0337 26.032C23.9117 26.032 21.6437 28.146 21.6437 31.1C21.6437 34.054 23.9117 36.168 26.9917 36.168C28.3917 36.168 29.8757 35.734 30.9537 34.922V30.946H28.8817V33.816ZM42.0724 26.2H39.8464L37.2284 30.554L34.6104 26.2H32.2024L35.9964 32.5V36H38.2644V32.528L42.0724 26.2Z" fill="#0857DA"/>
<path d="M45.5514 36H47.8194V28.048H50.9554V26.2H42.4154V28.048H45.5514V36ZM55.1769 28.356C53.9729 28.356 52.7549 28.678 51.9289 29.266L52.7129 30.792C53.2589 30.358 54.0849 30.092 54.8829 30.092C56.0589 30.092 56.6189 30.638 56.6189 31.576H54.8829C52.5869 31.576 51.6489 32.5 51.6489 33.83C51.6489 35.132 52.6989 36.112 54.4629 36.112C55.5689 36.112 56.3529 35.748 56.7589 35.062V36H58.8029V31.702C58.8029 29.42 57.4729 28.356 55.1769 28.356ZM55.0089 34.642C54.2389 34.642 53.7769 34.278 53.7769 33.732C53.7769 33.228 54.0989 32.85 55.1209 32.85H56.6189V33.62C56.3669 34.306 55.7369 34.642 55.0089 34.642ZM61.2795 36H63.4635V25.612H61.2795V36ZM71.6044 36H74.2504L70.8344 31.66L73.9704 28.468H71.3664L68.1744 31.492V25.612H65.9904V36H68.1744V34.082L69.2244 33.046L71.6044 36ZM78.0205 36.112C80.2745 36.112 81.5765 35.118 81.5765 33.718C81.5765 30.75 77.0265 31.996 77.0265 30.708C77.0265 30.316 77.4465 30.008 78.4265 30.008C79.1125 30.008 79.8545 30.148 80.5965 30.568L81.3245 29.014C80.6105 28.594 79.4625 28.356 78.4265 28.356C76.2285 28.356 74.9405 29.364 74.9405 30.792C74.9405 33.802 79.4905 32.542 79.4905 33.774C79.4905 34.194 79.1125 34.46 78.1045 34.46C77.1805 34.46 76.1585 34.166 75.4865 33.732L74.7585 35.3C75.4585 35.762 76.7465 36.112 78.0205 36.112Z" fill="black"/>
</svg>
