<svg width="18" height="18" viewBox="0 0 18 18" fill="none" xmlns="http://www.w3.org/2000/svg">
<path d="M8.99999 0.666504C4.40499 0.666504 0.666656 4.40484 0.666656 8.99984C0.666656 13.5948 4.40499 17.3332 8.99999 17.3332C13.595 17.3332 17.3333 13.5948 17.3333 8.99984C17.3333 4.40484 13.595 0.666504 8.99999 0.666504ZM2.33332 8.99984C2.33332 8.25067 2.46332 7.5315 2.69249 6.859L3.99999 8.1665L5.66666 9.83317V11.4998L7.33332 13.1665L8.16666 13.9998V15.609C4.88416 15.1965 2.33332 12.3932 2.33332 8.99984ZM14.275 13.0607C13.7308 12.6223 12.9058 12.3332 12.3333 12.3332V11.4998C12.3333 11.0578 12.1577 10.6339 11.8452 10.3213C11.5326 10.0088 11.1087 9.83317 10.6667 9.83317H7.33332V7.33317C7.77535 7.33317 8.19927 7.15758 8.51183 6.84502C8.8244 6.53245 8.99999 6.10853 8.99999 5.6665V4.83317H9.83332C10.2754 4.83317 10.6993 4.65758 11.0118 4.34502C11.3244 4.03245 11.5 3.60853 11.5 3.1665V2.824C13.94 3.81484 15.6667 6.20817 15.6667 8.99984C15.6665 10.4704 15.1769 11.8991 14.275 13.0607Z" fill="#1089FE"/>
</svg>
