<svg width="64" height="64" viewBox="0 0 64 64" fill="none" xmlns="http://www.w3.org/2000/svg">
<g filter="url(#filter0_d_251_5)">
<rect x="1" y="1" width="58" height="58" rx="10" fill="#15CF74"/>
</g>
<path d="M25.5 22.5C25.5 21.3065 25.9741 20.1619 26.818 19.318C27.6619 18.4741 28.8065 18 30 18C31.1935 18 32.3381 18.4741 33.182 19.318C34.0259 20.1619 34.5 21.3065 34.5 22.5V30C34.5 31.1935 34.0259 32.3381 33.182 33.182C32.3381 34.0259 31.1935 34.5 30 34.5C28.8065 34.5 27.6619 34.0259 26.818 33.182C25.9741 32.3381 25.5 31.1935 25.5 30V22.5Z" fill="white"/>
<path d="M23.25 27.75C23.4489 27.75 23.6397 27.829 23.7803 27.9697C23.921 28.1103 24 28.3011 24 28.5V30C24 31.5913 24.6321 33.1174 25.7574 34.2426C26.8826 35.3679 28.4087 36 30 36C31.5913 36 33.1174 35.3679 34.2426 34.2426C35.3679 33.1174 36 31.5913 36 30V28.5C36 28.3011 36.079 28.1103 36.2197 27.9697C36.3603 27.829 36.5511 27.75 36.75 27.75C36.9489 27.75 37.1397 27.829 37.2803 27.9697C37.421 28.1103 37.5 28.3011 37.5 28.5V30C37.5 31.8593 36.8094 33.6523 35.5622 35.0312C34.3149 36.4101 32.6 37.2766 30.75 37.4625V40.5H35.25C35.4489 40.5 35.6397 40.579 35.7803 40.7197C35.921 40.8603 36 41.0511 36 41.25C36 41.4489 35.921 41.6397 35.7803 41.7803C35.6397 41.921 35.4489 42 35.25 42H24.75C24.5511 42 24.3603 41.921 24.2197 41.7803C24.079 41.6397 24 41.4489 24 41.25C24 41.0511 24.079 40.8603 24.2197 40.7197C24.3603 40.579 24.5511 40.5 24.75 40.5H29.25V37.4625C27.4 37.2766 25.6851 36.4101 24.4378 35.0312C23.1906 33.6523 22.5 31.8593 22.5 30V28.5C22.5 28.3011 22.579 28.1103 22.7197 27.9697C22.8603 27.829 23.0511 27.75 23.25 27.75Z" fill="white"/>
<defs>
<filter id="filter0_d_251_5" x="0" y="0" width="64" height="64" filterUnits="userSpaceOnUse" color-interpolation-filters="sRGB">
<feFlood flood-opacity="0" result="BackgroundImageFix"/>
<feColorMatrix in="SourceAlpha" type="matrix" values="0 0 0 0 0 0 0 0 0 0 0 0 0 0 0 0 0 0 127 0" result="hardAlpha"/>
<feOffset dx="2" dy="2"/>
<feGaussianBlur stdDeviation="1.5"/>
<feComposite in2="hardAlpha" operator="out"/>
<feColorMatrix type="matrix" values="0 0 0 0 0.0627451 0 0 0 0 0.537255 0 0 0 0 0.996078 0 0 0 0.1 0"/>
<feBlend mode="normal" in2="BackgroundImageFix" result="effect1_dropShadow_251_5"/>
<feBlend mode="normal" in="SourceGraphic" in2="effect1_dropShadow_251_5" result="shape"/>
</filter>
</defs>
</svg>
