<svg width="21" height="21" viewBox="0 0 21 21" fill="none" xmlns="http://www.w3.org/2000/svg">
<circle cx="10.5" cy="10.5" r="10.5" fill="#FF3A44"/>
<g clip-path="url(#clip0_1_168)">
<path d="M14.125 10C14.125 10.3525 14.0663 10.6919 13.9588 11.0081L13.45 10.4994C13.4833 10.335 13.5 10.1677 13.5 10V9.375C13.5 9.29212 13.5329 9.21263 13.5915 9.15403C13.6501 9.09542 13.7296 9.0625 13.8125 9.0625C13.8954 9.0625 13.9749 9.09542 14.0335 9.15403C14.0921 9.21263 14.125 9.29212 14.125 9.375V10ZM11 12.5C11.5113 12.5 11.9862 12.3469 12.3825 12.0831L12.8313 12.5325C12.3851 12.856 11.8609 13.0551 11.3125 13.1094V14.375H13.1875C13.2704 14.375 13.3499 14.4079 13.4085 14.4665C13.4671 14.5251 13.5 14.6046 13.5 14.6875C13.5 14.7704 13.4671 14.8499 13.4085 14.9085C13.3499 14.9671 13.2704 15 13.1875 15H8.8125C8.72962 15 8.65013 14.9671 8.59153 14.9085C8.53292 14.8499 8.5 14.7704 8.5 14.6875C8.5 14.6046 8.53292 14.5251 8.59153 14.4665C8.65013 14.4079 8.72962 14.375 8.8125 14.375H10.6875V13.1094C9.91668 13.0319 9.20211 12.6709 8.68242 12.0963C8.16274 11.5218 7.87499 10.7747 7.875 10V9.375C7.875 9.29212 7.90792 9.21263 7.96653 9.15403C8.02513 9.09542 8.10462 9.0625 8.1875 9.0625C8.27038 9.0625 8.34987 9.09542 8.40847 9.15403C8.46708 9.21263 8.5 9.29212 8.5 9.375V10C8.5 10.663 8.76339 11.2989 9.23223 11.7678C9.70107 12.2366 10.337 12.5 11 12.5ZM12.875 6.875V9.92438L9.22375 6.27312C9.36684 5.85265 9.6545 5.4966 10.0355 5.26835C10.4165 5.04011 10.8662 4.95449 11.3044 5.02673C11.7427 5.09897 12.1411 5.32438 12.4287 5.66284C12.7163 6.0013 12.8744 6.43085 12.875 6.875Z" fill="white"/>
<path d="M11.9287 11.6294L9.125 8.825V10C9.1249 10.3283 9.21102 10.6509 9.37473 10.9355C9.53845 11.2201 9.77402 11.4567 10.0579 11.6217C10.3418 11.7867 10.664 11.8742 10.9923 11.8755C11.3206 11.8769 11.6435 11.792 11.9287 11.6294ZM7.02875 5.84625L14.5287 13.3462L14.9712 12.9037L7.47125 5.40375L7.02875 5.84625Z" fill="white"/>
</g>
<defs>
<clipPath id="clip0_1_168">
<rect width="10" height="10" fill="white" transform="translate(6 5)"/>
</clipPath>
</defs>
</svg>
