<svg width="54" height="54" viewBox="0 0 54 54" fill="none" xmlns="http://www.w3.org/2000/svg">
<g filter="url(#filter0_d_1_12)">
<rect x="1" y="1" width="48" height="48" rx="10" fill="white"/>
<rect x="1.5" y="1.5" width="47" height="47" rx="9.5" stroke="#D7DDEC"/>
</g>
<path d="M26.7325 16.25C26.8648 16.25 26.9937 16.292 27.1007 16.37C27.2076 16.4479 27.287 16.5578 27.3275 16.6838L28.015 18.82C28.3037 18.9613 28.58 19.12 28.8437 19.2987L31.0387 18.8263C31.1682 18.7986 31.303 18.8128 31.4239 18.8667C31.5447 18.9206 31.6454 19.0115 31.7112 19.1263L33.4437 22.125C33.5099 22.2397 33.5379 22.3724 33.5238 22.5041C33.5096 22.6357 33.454 22.7595 33.365 22.8575L31.8587 24.52C31.8807 24.8388 31.8807 25.1587 31.8587 25.4775L33.365 27.1425C33.454 27.2405 33.5096 27.3643 33.5238 27.4959C33.5379 27.6276 33.5099 27.7603 33.4437 27.875L31.7112 30.875C31.6452 30.9895 31.5445 31.0802 31.4236 31.1338C31.3028 31.1875 31.168 31.2015 31.0387 31.1737L28.8437 30.7013C28.5812 30.8787 28.3037 31.0388 28.0162 31.18L27.3275 33.3162C27.287 33.4422 27.2076 33.5521 27.1007 33.63C26.9937 33.708 26.8648 33.75 26.7325 33.75H23.2675C23.1352 33.75 23.0063 33.708 22.8993 33.63C22.7924 33.5521 22.713 33.4422 22.6725 33.3162L21.9862 31.1812C21.6983 31.0404 21.4205 30.8796 21.155 30.7L18.9612 31.1737C18.8318 31.2014 18.697 31.1872 18.5761 31.1333C18.4553 31.0794 18.3546 30.9885 18.2887 30.8738L16.5562 27.875C16.4901 27.7603 16.4621 27.6276 16.4762 27.4959C16.4904 27.3643 16.546 27.2405 16.635 27.1425L18.1412 25.4775C18.1194 25.1595 18.1194 24.8405 18.1412 24.5225L16.635 22.8575C16.546 22.7595 16.4904 22.6357 16.4762 22.5041C16.4621 22.3724 16.4901 22.2397 16.5562 22.125L18.2887 19.125C18.3548 19.0105 18.4555 18.9198 18.5764 18.8662C18.6972 18.8125 18.832 18.7985 18.9612 18.8263L21.155 19.3C21.42 19.1213 21.6975 18.96 21.9862 18.8188L22.6737 16.6838C22.7141 16.5582 22.7932 16.4486 22.8996 16.3707C23.006 16.2928 23.1344 16.2505 23.2662 16.25H26.7312H26.7325ZM26.275 17.5H23.725L23.015 19.7088L22.5362 19.9425C22.3009 20.0577 22.0737 20.1888 21.8562 20.335L21.4137 20.635L19.1437 20.145L17.8687 22.355L19.425 24.0775L19.3875 24.6075C19.3695 24.8689 19.3695 25.1311 19.3875 25.3925L19.425 25.9225L17.8662 27.645L19.1425 29.855L21.4125 29.3663L21.855 29.665C22.0724 29.8112 22.2996 29.9423 22.535 30.0575L23.0137 30.2913L23.725 32.5H26.2775L26.99 30.29L27.4675 30.0575C27.7026 29.9426 27.9294 29.8114 28.1462 29.665L28.5875 29.3663L30.8587 29.855L32.1337 27.645L30.5762 25.9225L30.6137 25.3925C30.6318 25.1307 30.6318 24.868 30.6137 24.6062L30.5762 24.0763L32.135 22.355L30.8587 20.145L28.5875 20.6325L28.1462 20.335C27.9294 20.1885 27.7026 20.0574 27.4675 19.9425L26.99 19.71L26.2762 17.5H26.275ZM25 21.25C25.9946 21.25 26.9484 21.6451 27.6516 22.3483C28.3549 23.0516 28.75 24.0054 28.75 25C28.75 25.9946 28.3549 26.9484 27.6516 27.6517C26.9484 28.3549 25.9946 28.75 25 28.75C24.0054 28.75 23.0516 28.3549 22.3483 27.6517C21.6451 26.9484 21.25 25.9946 21.25 25C21.25 24.0054 21.6451 23.0516 22.3483 22.3483C23.0516 21.6451 24.0054 21.25 25 21.25ZM25 22.5C24.337 22.5 23.7011 22.7634 23.2322 23.2322C22.7634 23.7011 22.5 24.337 22.5 25C22.5 25.663 22.7634 26.2989 23.2322 26.7678C23.7011 27.2366 24.337 27.5 25 27.5C25.663 27.5 26.2989 27.2366 26.7678 26.7678C27.2366 26.2989 27.5 25.663 27.5 25C27.5 24.337 27.2366 23.7011 26.7678 23.2322C26.2989 22.7634 25.663 22.5 25 22.5Z" fill="#C2C9D4"/>
<defs>
<filter id="filter0_d_1_12" x="0" y="0" width="54" height="54" filterUnits="userSpaceOnUse" color-interpolation-filters="sRGB">
<feFlood flood-opacity="0" result="BackgroundImageFix"/>
<feColorMatrix in="SourceAlpha" type="matrix" values="0 0 0 0 0 0 0 0 0 0 0 0 0 0 0 0 0 0 127 0" result="hardAlpha"/>
<feOffset dx="2" dy="2"/>
<feGaussianBlur stdDeviation="1.5"/>
<feComposite in2="hardAlpha" operator="out"/>
<feColorMatrix type="matrix" values="0 0 0 0 0.0627451 0 0 0 0 0.537255 0 0 0 0 0.996078 0 0 0 0.1 0"/>
<feBlend mode="normal" in2="BackgroundImageFix" result="effect1_dropShadow_1_12"/>
<feBlend mode="normal" in="SourceGraphic" in2="effect1_dropShadow_1_12" result="shape"/>
</filter>
</defs>
</svg>
