<svg width="20" height="20" viewBox="0 0 20 20" fill="none" xmlns="http://www.w3.org/2000/svg">
<circle cx="10" cy="10" r="10" fill="#FFBD00"/>
<path d="M14.0263 8.30468C13.8072 7.78176 13.4885 7.30645 13.0879 6.90527C12.6884 6.50338 12.2139 6.18386 11.6914 5.96484C11.156 5.73938 10.5808 5.62381 9.99996 5.62499H9.98043C9.38961 5.62792 8.81832 5.74511 8.28024 5.97558C7.76214 6.19684 7.29212 6.51694 6.89645 6.91796C6.4997 7.31825 6.18461 7.79189 5.96871 8.31249C5.74461 8.85386 5.63105 9.43459 5.63473 10.0205C5.63766 10.6982 5.79977 11.3711 6.1025 11.9727V13.457C6.1025 13.7051 6.30368 13.9062 6.55075 13.9062H8.03317C8.63754 14.2112 9.30446 14.3717 9.98141 14.375H10.0019C10.5859 14.375 11.1513 14.2617 11.6845 14.04C12.2045 13.8236 12.6772 13.5078 13.0761 13.1103C13.4785 12.7109 13.7949 12.2441 14.0166 11.7236C14.2461 11.1846 14.3632 10.6113 14.3662 10.0195C14.3681 9.4248 14.2529 8.84765 14.0263 8.30468ZM8.05075 10.4687C7.79293 10.4687 7.58297 10.2588 7.58297 9.99999C7.58297 9.7412 7.79293 9.53124 8.05075 9.53124C8.30856 9.53124 8.51852 9.7412 8.51852 9.99999C8.51852 10.2588 8.30953 10.4687 8.05075 10.4687ZM9.99996 10.4687C9.74215 10.4687 9.53219 10.2588 9.53219 9.99999C9.53219 9.7412 9.74215 9.53124 9.99996 9.53124C10.2578 9.53124 10.4677 9.7412 10.4677 9.99999C10.4677 10.2588 10.2578 10.4687 9.99996 10.4687ZM11.9492 10.4687C11.6914 10.4687 11.4814 10.2588 11.4814 9.99999C11.4814 9.7412 11.6914 9.53124 11.9492 9.53124C12.207 9.53124 12.417 9.7412 12.417 9.99999C12.417 10.2588 12.207 10.4687 11.9492 10.4687Z" fill="white"/>
</svg>
