<svg width="26" height="35" viewBox="0 0 26 35" fill="none" xmlns="http://www.w3.org/2000/svg">
<path d="M10.8333 14.1389C10.8333 13.8516 10.9475 13.5761 11.1506 13.373C11.3538 13.1699 11.6293 13.0558 11.9167 13.0558H19.5C19.7873 13.0558 20.0629 13.1699 20.266 13.373C20.4692 13.5761 20.5833 13.8516 20.5833 14.1389C20.5833 14.4261 20.4692 14.7016 20.266 14.9048C20.0629 15.1079 19.7873 15.222 19.5 15.222H11.9167C11.6293 15.222 11.3538 15.1079 11.1506 14.9048C10.9475 14.7016 10.8333 14.4261 10.8333 14.1389ZM10.8333 20.6375C10.8333 20.3503 10.9475 20.0748 11.1506 19.8717C11.3538 19.6685 11.6293 19.5544 11.9167 19.5544H19.5C19.7873 19.5544 20.0629 19.6685 20.266 19.8717C20.4692 20.0748 20.5833 20.3503 20.5833 20.6375C20.5833 20.9248 20.4692 21.2003 20.266 21.4034C20.0629 21.6065 19.7873 21.7206 19.5 21.7206H11.9167C11.6293 21.7206 11.3538 21.6065 11.1506 21.4034C10.9475 21.2003 10.8333 20.9248 10.8333 20.6375ZM10.8333 27.1362C10.8333 26.8489 10.9475 26.5734 11.1506 26.3703C11.3538 26.1672 11.6293 26.0531 11.9167 26.0531H19.5C19.7873 26.0531 20.0629 26.1672 20.266 26.3703C20.4692 26.5734 20.5833 26.8489 20.5833 27.1362C20.5833 27.4234 20.4692 27.6989 20.266 27.9021C20.0629 28.1052 19.7873 28.2193 19.5 28.2193H11.9167C11.6293 28.2193 11.3538 28.1052 11.1506 27.9021C10.9475 27.6989 10.8333 27.4234 10.8333 27.1362ZM8.66667 14.1389C8.66667 14.5698 8.49546 14.983 8.19072 15.2877C7.88597 15.5924 7.47264 15.7635 7.04167 15.7635C6.61069 15.7635 6.19736 15.5924 5.89262 15.2877C5.58787 14.983 5.41667 14.5698 5.41667 14.1389C5.41667 13.708 5.58787 13.2948 5.89262 12.9901C6.19736 12.6854 6.61069 12.5142 7.04167 12.5142C7.47264 12.5142 7.88597 12.6854 8.19072 12.9901C8.49546 13.2948 8.66667 13.708 8.66667 14.1389ZM8.66667 20.6375C8.66667 21.0684 8.49546 21.4817 8.19072 21.7863C7.88597 22.091 7.47264 22.2622 7.04167 22.2622C6.61069 22.2622 6.19736 22.091 5.89262 21.7863C5.58787 21.4817 5.41667 21.0684 5.41667 20.6375C5.41667 20.2066 5.58787 19.7934 5.89262 19.4887C6.19736 19.184 6.61069 19.0129 7.04167 19.0129C7.47264 19.0129 7.88597 19.184 8.19072 19.4887C8.49546 19.7934 8.66667 20.2066 8.66667 20.6375ZM7.04167 28.7608C7.47264 28.7608 7.88597 28.5897 8.19072 28.285C8.49546 27.9803 8.66667 27.5671 8.66667 27.1362C8.66667 26.7053 8.49546 26.2921 8.19072 25.9874C7.88597 25.6827 7.47264 25.5115 7.04167 25.5115C6.61069 25.5115 6.19736 25.6827 5.89262 25.9874C5.58787 26.2921 5.41667 26.7053 5.41667 27.1362C5.41667 27.5671 5.58787 27.9803 5.89262 28.285C6.19736 28.5897 6.61069 28.7608 7.04167 28.7608ZM6.68417 2.22469C6.90829 1.5909 7.32351 1.04221 7.8726 0.654242C8.4217 0.266272 9.07763 0.0581197 9.75 0.0584721H16.25C16.9224 0.0581197 17.5783 0.266272 18.1274 0.654242C18.6765 1.04221 19.0917 1.5909 19.3158 2.22469H22.75C23.612 2.22469 24.4386 2.56703 25.0481 3.17639C25.6576 3.78576 26 4.61224 26 5.47401V31.4686C26 32.3304 25.6576 33.1569 25.0481 33.7662C24.4386 34.3756 23.612 34.7179 22.75 34.7179H3.25C2.38805 34.7179 1.5614 34.3756 0.951903 33.7662C0.342409 33.1569 0 32.3304 0 31.4686V5.47401C0 4.61224 0.342409 3.78576 0.951903 3.17639C1.5614 2.56703 2.38805 2.22469 3.25 2.22469H6.68417ZM9.75 2.22469C9.46268 2.22469 9.18713 2.3388 8.98397 2.54192C8.7808 2.74505 8.66667 3.02054 8.66667 3.3078C8.66667 3.59506 8.7808 3.87055 8.98397 4.07367C9.18713 4.27679 9.46268 4.39091 9.75 4.39091H16.25C16.5373 4.39091 16.8129 4.27679 17.016 4.07367C17.2192 3.87055 17.3333 3.59506 17.3333 3.3078C17.3333 3.02054 17.2192 2.74505 17.016 2.54192C16.8129 2.3388 16.5373 2.22469 16.25 2.22469H9.75ZM6.68417 4.39091H3.25C2.96268 4.39091 2.68713 4.50502 2.48397 4.70814C2.2808 4.91126 2.16667 5.18676 2.16667 5.47401V31.4686C2.16667 31.7559 2.2808 32.0314 2.48397 32.2345C2.68713 32.4376 2.96268 32.5517 3.25 32.5517H22.75C23.0373 32.5517 23.3129 32.4376 23.516 32.2345C23.7192 32.0314 23.8333 31.7559 23.8333 31.4686V5.47401C23.8333 5.18676 23.7192 4.91126 23.516 4.70814C23.3129 4.50502 23.0373 4.39091 22.75 4.39091H19.3158C19.0917 5.02469 18.6765 5.57338 18.1274 5.96135C17.5783 6.34932 16.9224 6.55748 16.25 6.55712H9.75C9.07763 6.55748 8.4217 6.34932 7.8726 5.96135C7.32351 5.57338 6.90829 5.02469 6.68417 4.39091Z" fill="#086DC8"/>
</svg>
